<svg width="20" height="20" viewBox="0 0 20 20" fill="none" xmlns="http://www.w3.org/2000/svg">
<path d="M1.97991 19.1104L1.2876 17.7905L9.27745 10.2454L1.2876 2.8832L3.36452 2.61233L10.2876 8.54176L16.7876 2.11035L17.903 3.93217L11.6722 10.2454L19.2876 18.2156V19.1007L17.2876 19.1104L10.2876 11.1817L1.97991 19.1104Z" fill="#FF6060"/>
<path d="M4.73891 12.6495C4.49354 12.6881 5.03072 12.2609 4.56284 12.4268C4.61673 12.346 4.67057 12.2642 4.72424 12.1831C4.79939 12.2277 4.87496 12.2719 4.95046 12.3169C4.88044 12.4279 4.81014 12.5388 4.7392 12.6498C4.7391 12.6497 4.73901 12.6496 4.73891 12.6495ZM5.34166 13.5407C5.26156 13.2862 5.47749 12.9755 5.04256 13.0975C5.07685 13.1802 5.11036 13.2631 5.1442 13.3452C5.00175 13.3967 4.85947 13.4495 4.7188 13.5028C4.70474 13.5607 4.69061 13.6184 4.67605 13.6757C4.53529 13.6193 4.39544 13.563 4.25602 13.508C4.30918 13.482 4.36321 13.4559 4.41657 13.4301C4.49437 13.1874 4.61002 13.0205 4.80518 12.7857C4.7634 12.7802 4.72187 12.7751 4.68025 12.7698C4.82592 12.7 4.97243 12.6312 5.11921 12.5636C5.06633 12.7013 5.00622 12.8543 4.95622 12.9809C5.24914 13.0038 5.40865 12.6659 5.50195 12.5009C5.62945 12.2767 5.66649 12.3971 5.763 12.2327C5.77848 12.2066 5.72061 12.1405 5.75996 12.098C5.95849 11.8837 6.38847 11.5146 6.29954 11.9026C5.9433 12.224 5.76604 12.6321 5.39228 12.9218C5.63839 13.0011 5.51626 13.2328 5.34166 13.5407ZM5.64924 8.74058C5.85721 8.72939 6.0409 8.96693 6.12616 9.17038C6.12633 9.17053 6.12651 9.17068 6.12668 9.17083C6.1453 9.21577 6.09358 9.4194 5.98906 9.32019C5.81877 9.15834 5.9363 8.86317 5.70446 8.93281C5.68835 8.86887 5.66741 8.8061 5.64924 8.74058ZM5.25041 8.42C5.19219 8.27054 5.39829 8.14332 5.49179 8.30811C5.49191 8.30798 5.49203 8.30784 5.49216 8.30771C5.53123 8.37642 5.29686 8.41264 5.62527 8.45471C5.57002 8.59605 5.52324 8.72696 5.47137 8.86368C5.41951 8.82238 5.37111 8.78593 5.3171 8.74219C5.51178 8.59979 5.30918 8.56881 5.25041 8.42ZM6.39905 11.6533C6.29665 11.5119 6.23058 11.5801 6.03654 11.61C6.14656 11.5044 6.25697 11.3991 6.36674 11.2942C6.37791 11.4147 6.38887 11.5339 6.39905 11.6533ZM3.86653 14.1903C3.86636 14.1904 3.8662 14.1906 3.86604 14.1908C3.84717 14.2436 3.82814 14.2964 3.80928 14.3483C3.75203 14.3312 3.69532 14.3141 3.63837 14.2973C3.54913 14.4599 3.45843 14.6224 3.36779 14.7836C3.27528 14.6544 3.5142 14.4458 3.55855 14.2385C3.77195 14.0863 3.92454 14.0657 4.03166 14.1545C3.97669 14.1663 3.92167 14.1778 3.86653 14.1903ZM16.442 5.95028C16.4613 6.05229 16.4812 6.15381 16.5004 6.25578C16.5834 6.22735 16.6594 6.19289 16.7472 6.16837C16.6283 5.76015 16.8759 5.97721 17.0504 5.76831C17.5848 5.1275 17.018 4.878 18.1487 4.93888C17.6962 5.3394 18.1424 5.45422 18.1048 5.92782C17.8858 5.81752 17.7646 5.19185 17.5153 5.28871C17.3954 5.76123 17.2745 6.21006 17.0592 6.65315C17.0974 6.67174 17.1357 6.69049 17.1739 6.70908C17.208 6.63872 17.2415 6.56867 17.2755 6.49828C17.296 6.63069 17.3171 6.76114 17.3375 6.89527C17.2356 6.65069 17.1488 6.93217 16.9735 6.71C16.8954 6.6111 16.8532 6.40717 16.8161 6.27477C16.6461 6.35408 16.4768 6.44045 16.3068 6.52251C16.3008 6.38708 16.2945 6.25159 16.288 6.11655C16.3387 6.06085 16.3896 6.00619 16.4403 5.95049C16.4408 5.95042 16.4414 5.95035 16.442 5.95028ZM5.82581 16.5879C5.89463 16.3366 6.17811 16.0459 6.45394 16.0256C6.24452 16.2133 6.03554 16.4006 5.82581 16.5879ZM4.12212 14.2257C4.08621 14.2245 4.05111 14.223 4.01532 14.2219C4.06068 14.1073 4.10623 13.992 4.1506 13.8765C4.21832 13.917 4.28655 13.9573 4.35481 13.9975C4.27748 14.0734 4.19941 14.1497 4.12212 14.2257ZM8.15184 10.4925C8.21742 10.5419 8.22065 10.549 8.28789 10.6261C8.28786 10.626 8.28783 10.6259 8.2878 10.6257C8.31456 10.6562 8.53073 10.9193 8.45201 10.9493C8.3244 10.8406 8.19007 10.7228 8.06042 10.6106C8.09018 10.5707 8.12275 10.5337 8.15184 10.4925ZM7.685 10.4684C7.68473 10.4685 7.68446 10.4685 7.68419 10.4686C7.63369 10.5039 7.57788 10.5289 7.53077 10.5706C7.61365 10.3285 7.77698 10.4494 7.88327 10.2623C7.9892 10.0748 7.99998 9.90104 8.31733 9.98285C8.30035 10.0594 8.29211 10.1525 8.27811 10.235C7.99331 10.3588 8.01024 10.4913 7.91733 10.7341C7.83977 10.6454 7.76263 10.5573 7.685 10.4684ZM18.3156 2.22664C18.1064 2.28927 18.2505 2.12806 18.2493 2.12125C18.2495 2.12122 18.2498 2.12119 18.2501 2.12116C17.8249 1.80175 18.3834 2.11499 18.1674 1.70008C18.2487 1.73172 18.3319 1.76085 18.4134 1.7916C18.3823 1.93544 18.3413 2.0892 18.3156 2.22664ZM6.46359 3.7472C6.49665 3.7016 6.52911 3.65535 6.56216 3.60977C6.76917 3.79912 6.96886 3.67589 7.01631 3.97867C6.83149 3.90217 6.64719 3.82514 6.46315 3.7477C6.4633 3.74754 6.46344 3.74737 6.46359 3.7472ZM7.30287 9.3282C7.5919 9.47336 7.7869 9.60113 7.92217 9.89495C7.92223 9.89523 7.92229 9.89551 7.92234 9.89578C7.92984 9.91305 7.8068 9.9237 7.80832 9.95521C7.86361 9.98612 7.92523 10.0131 7.98265 10.0427C7.94059 10.1008 7.89828 10.1585 7.85658 10.2162C7.73829 10.086 7.62014 9.9555 7.50181 9.82437C7.49265 9.87262 7.48427 9.92096 7.47523 9.96909C7.34791 9.88699 7.2209 9.80537 7.09327 9.72361C7.21367 9.66956 7.33365 9.61576 7.4532 9.56168C7.40311 9.4839 7.35241 9.40657 7.30287 9.3282ZM9.62484 7.23246C9.62888 7.15191 9.76846 7.12935 9.74588 7.03797C9.72278 6.94717 9.53731 6.94666 9.68004 6.8309C9.77462 6.879 9.87551 6.92769 9.97241 6.97606C9.92591 6.51051 9.47594 6.51727 9.73281 6.20936C9.9141 6.49661 10.1498 6.63168 10.4634 6.74846C10.2447 6.98376 9.82481 6.99101 9.78037 7.34705C9.72921 7.30907 9.67434 7.27046 9.62582 7.23238C9.6255 7.23241 9.62517 7.23244 9.62484 7.23246ZM2.39611 17.2473C2.46319 17.429 2.68365 17.8105 2.7114 18.0701C2.7175 18.1343 2.58483 18.4286 2.55725 18.4419C2.46137 18.4856 2.34534 18.2721 2.39415 18.5404C2.35635 18.4613 2.3167 18.3862 2.27802 18.3083C2.22041 18.3561 2.16316 18.4037 2.10589 18.4506C2.16193 18.5406 2.21785 18.6309 2.27365 18.7211C2.25519 18.7367 2.2367 18.7522 2.21829 18.7678C2.05006 18.4265 2.06868 18.6703 1.90386 18.5339C1.94742 18.7162 1.99324 18.8989 2.03944 19.0791C1.9959 18.984 1.94262 18.8727 1.90578 18.7879C1.79292 18.8332 1.92086 19.0144 1.91886 19.058C1.90845 19.3031 1.45743 18.3195 1.25078 18.3281C1.31568 18.489 1.38576 18.6567 1.45407 18.8202C1.41006 18.7861 1.36551 18.7516 1.32109 18.7177C1.26516 18.4522 1.17238 18.1827 1.07319 17.903L0.993839 17.717L1.12137 17.6145C1.25086 17.5232 1.38276 17.4295 1.51979 17.3381C1.5463 17.3047 1.57275 17.2712 1.59893 17.2385C1.54796 17.2025 1.49771 17.1662 1.44693 17.1304C1.48723 17.0805 1.52808 17.0299 1.56827 16.9798C1.57434 17.2594 1.75677 17.0743 2.07104 16.9505C2.00038 17.1186 1.82063 17.2279 1.92277 17.3154C2.26816 16.8474 2.86264 16.5005 3.1819 16.0276C3.26078 15.9098 3.12849 15.7703 3.37464 15.5576C3.38142 15.5808 3.40666 15.6103 3.42085 15.6357C3.76357 15.1799 3.96579 14.8974 4.45726 14.5669C4.38122 14.5356 4.30559 14.5038 4.23003 14.4729C4.16703 14.5868 4.10386 14.7008 4.04048 14.8133C3.89659 14.7838 3.9488 14.6575 3.68607 14.9181C3.47074 15.1316 3.63538 15.0431 3.60065 15.1264C3.55354 15.2391 3.4192 15.2395 3.36972 15.3619C3.33099 15.4561 3.46896 15.456 3.27813 15.6065C3.26355 15.4493 3.24633 15.2864 3.22861 15.1249C3.28969 15.1035 3.35091 15.083 3.41255 15.0622C3.39334 15.1288 3.37436 15.1942 3.35475 15.2604C3.46338 15.0692 3.56496 14.8874 3.67466 14.6869C3.75229 14.8721 3.8643 14.6634 3.93554 14.5611C4.04652 14.4017 4.02033 14.6112 4.09414 14.5079C4.16797 14.4046 4.16188 14.2023 4.34304 14.0661C4.31668 14.214 4.48659 14.1548 4.51894 14.2353C4.55121 14.3158 4.39151 14.4936 4.61609 14.3981C4.88726 14.0443 4.33494 14.1549 4.51253 13.9101C4.72302 13.6131 5.13447 13.9251 5.13249 14.0779C5.13071 14.198 4.90934 14.3832 4.90542 14.502C5.38761 14.261 5.18223 14.037 5.20448 13.932C5.28524 13.5505 5.53323 14.1268 5.66322 13.7115C5.73447 13.7973 5.79896 13.874 5.86697 13.9564C5.90132 13.8974 5.91475 13.8483 5.96182 13.7828C5.64093 13.783 5.78758 13.66 5.85865 13.5925C5.97076 13.4862 5.72357 13.5719 5.73455 13.524C5.76402 13.3945 5.91317 13.2983 5.76918 13.3017C5.83484 13.3013 5.90369 13.2984 5.97041 13.2972C6.06414 13.1336 6.03682 12.4869 5.81515 12.8401C5.72006 12.6846 5.8713 12.6545 5.96278 12.603C6.05415 12.5513 5.97403 12.4692 6.05222 12.4216C6.36411 12.2329 6.33509 12.5417 6.40003 12.6927C6.66566 12.2886 6.28594 12.5575 6.72182 12.0314C6.67941 11.891 6.36267 12.012 6.49632 11.7735C6.6845 11.9027 6.93282 11.8859 7.25459 11.6812C7.24446 11.6175 7.2338 11.5534 7.2234 11.4895C7.51579 11.5013 7.59533 11.7378 7.68432 11.2808C7.87615 11.7799 7.75965 11.453 8.14476 11.3674C8.22303 11.3501 8.17784 11.5338 8.28404 11.5063C8.33223 11.4939 8.35579 11.3649 8.47528 11.3365C8.53357 11.3226 8.8461 11.3 8.906 11.1186C8.64672 11.0236 8.7341 10.6509 8.39581 10.6917C8.79524 10.3772 8.97058 10.0468 8.7929 10.6849C8.93796 10.6514 9.0835 10.6181 9.2295 10.5856C9.25367 10.4815 9.27839 10.377 9.30266 10.2721L9.33107 10.2419L9.30233 10.2184C9.30165 10.2183 9.30096 10.2182 9.30027 10.2181C9.4315 10.0556 9.48129 10.0217 9.19872 9.80762C9.31109 9.86021 9.42324 9.91247 9.53543 9.96543L9.83336 10.2087L9.53884 10.5222C9.52097 10.5541 9.50305 10.586 9.48504 10.6179C9.51004 10.6519 9.52419 10.698 9.55592 10.7242C9.57066 10.6918 9.59404 10.6533 9.62288 10.6112L10.0121 10.1969L9.61838 9.8754C9.41078 9.75345 9.1132 9.51634 9.0043 9.47806C8.87223 9.43173 9.04265 9.61304 8.97856 9.62799C8.44576 9.75133 8.68979 9.52255 8.47475 9.42951C8.34774 9.37578 8.54149 9.62292 8.47704 9.59037C8.23788 9.46989 8.31579 9.20906 8.15081 9.05114C8.11527 9.2094 8.07842 9.36814 8.04182 9.52469C7.86928 9.35847 7.67254 9.17798 7.47656 9.06212C7.39966 9.01659 7.377 9.13866 7.36161 9.13429C7.2844 9.11359 7.03043 8.96397 7.00733 8.94402C6.83548 8.79163 6.93142 8.67783 6.77132 8.52228C6.84496 8.57163 6.91382 8.61845 6.98561 8.66694C7.17789 8.51574 7.37024 8.3656 7.56185 8.21512C7.41411 8.05271 7.26625 7.8903 7.1184 7.72705C7.17995 7.89681 7.24284 8.06598 7.3057 8.23432C6.98988 8.20734 6.67124 8.1834 6.35018 8.16211C6.336 7.98498 6.32297 7.80736 6.31034 7.62854C6.02767 7.41247 5.73783 7.83231 5.9133 7.39381C5.81083 7.35088 5.70817 7.30812 5.60565 7.26523C5.65981 7.22848 5.71391 7.19157 5.76798 7.15492C5.64868 7.09856 5.52937 7.04229 5.40931 6.98676C5.35328 7.24295 5.28868 7.50458 5.23889 7.75208C5.01992 7.62404 5.1464 7.47975 5.15134 7.41985C5.16445 7.26098 4.90286 7.25777 4.92495 7.11886C4.93305 7.07121 5.19975 7.14014 5.23693 6.97629C5.2434 6.94514 5.37103 6.32683 5.13435 6.27755C5.07024 6.35287 4.99994 6.45282 4.93337 6.53751C4.686 6.39424 4.9335 5.91569 5.05949 5.83354C4.88184 5.80698 4.71704 5.66525 4.5858 5.76265C4.52742 5.71394 4.46959 5.66548 4.41118 5.61679C4.73511 5.38202 4.45574 5.21779 4.21008 5.45374C4.30017 5.5485 4.39012 5.64364 4.4803 5.73831C4.12778 5.97528 4.25058 6.42708 3.90151 5.58852C3.93234 5.3223 4.08831 5.79954 4.1035 5.5934C4.00322 5.37275 3.79501 5.28941 3.74238 5.03332C3.67782 4.71367 4.04137 4.79862 3.42515 4.55936C4.00832 5.92935 3.00834 4.73701 2.40506 4.45105C2.69191 3.88112 2.43433 3.36627 1.76452 2.99928C1.70213 3.18097 1.93462 3.27282 1.99427 3.40638C2.05408 3.53971 1.87707 3.51732 1.94526 3.69028C2.01353 3.86325 2.20168 4.1838 2.24504 4.38685C2.07314 4.36158 1.3896 4.0578 1.92611 4.16689C1.78311 3.80599 1.78259 3.56418 1.48537 3.2471C1.24234 3.34551 1.12784 3.45769 0.896058 3.30812L-1.62125e-05 2.43216L1.21287 2.31024C1.25465 2.29727 1.30337 2.28625 1.3605 2.27716C1.16255 2.69153 1.67298 2.89291 1.61969 3.3016C1.33088 3.25017 1.41311 2.89553 1.26607 2.71815L0.916676 2.75327L1.17481 3.0056C1.17186 3.02169 1.17035 3.03809 1.17055 3.05484C1.17124 3.08031 1.44228 3.19813 1.48537 3.2471C1.51079 2.8038 1.52816 2.64119 1.93241 2.45824C1.87078 2.41806 1.82425 2.37623 1.78294 2.34563L1.38213 3.60805C1.46942 3.587 1.52019 3.55615 1.51546 3.43053C1.56774 3.51026 1.62029 3.5902 1.67196 3.67033C1.7361 3.66065 1.79306 3.64596 1.86154 3.6395C1.72891 3.35468 1.93493 3.51527 2.04689 3.36501C2.15879 3.21419 1.95452 3.00137 2.30952 2.95288C2.18194 2.89812 2.06585 2.85231 1.9427 2.80145C2.16184 2.6952 2.38153 2.58756 2.60047 2.47975C2.41568 2.31757 2.03207 2.09542 2.01043 1.85512C2.12758 1.93047 2.46767 1.71916 2.50627 1.7066C2.65594 1.6597 2.59248 1.8241 2.60453 1.82616C2.85447 1.86592 3.04558 1.78553 3.16716 2.00521C3.20464 1.97601 3.24096 1.95539 3.27692 1.94062L3.60154 1.91021L3.80517 2.09784C3.92621 2.15598 3.99235 2.25768 4.11016 2.35067C4.19377 2.41669 4.29088 2.27149 4.3172 2.33652C4.49147 2.76962 4.0413 2.68876 4.9332 2.87538C4.93867 2.72032 4.94667 2.56431 4.95227 2.40912C5.0516 2.43184 5.15079 2.45391 5.25031 2.47641C5.28235 2.5318 5.31383 2.58701 5.3458 2.64249C5.17192 2.84351 4.99749 3.04477 4.82363 3.24578C4.86474 3.29955 4.90631 3.35322 4.94737 3.40705C4.84363 3.35355 4.73977 3.29977 4.63617 3.24611C4.5979 3.27484 4.56015 3.30403 4.5219 3.33274C4.60334 3.49708 4.68361 3.66189 4.76409 3.82735C4.82694 3.75896 4.89018 3.69004 4.95304 3.62163C5.15866 3.96627 5.11329 4.03317 5.55633 4.07163C5.76641 4.25442 6.19523 4.10232 6.42674 4.07948C6.43657 4.15679 6.44594 4.23474 6.45613 4.31263C6.53558 4.27675 6.61515 4.24129 6.69473 4.20527C6.67967 4.3356 6.66518 4.46679 6.65015 4.59709C6.84348 4.4342 6.91059 4.38839 6.74794 4.13836C7.02426 3.96641 7.3229 4.39227 7.41185 4.60372C7.47942 4.76403 7.17782 4.85076 7.17221 4.88724C7.15193 5.01081 7.40826 5.10576 7.43782 5.15405C7.56339 5.35766 7.69376 5.45083 7.81306 5.62786C7.8361 5.66253 7.81311 5.86149 7.81693 5.87166C7.8548 5.94119 7.9411 6.1212 7.95537 6.13646C8.6899 6.92589 8.29044 5.63239 9.0015 6.33369C9.0414 6.24122 9.08268 6.15086 9.12298 6.05892C9.18443 6.10286 9.2463 6.14753 9.30775 6.19147C9.32833 6.31412 9.14449 6.35131 9.36651 6.38341C9.27961 6.46592 9.19265 6.54841 9.10568 6.63C9.21038 6.63447 9.31256 6.63732 9.41891 6.64286C9.25091 7.04256 9.55744 7.42778 9.21355 7.77648C9.09648 7.89521 8.72627 7.80063 8.74813 8.0535C8.83672 8.17627 8.89035 7.96054 8.94255 7.99186C9.31809 8.21995 9.11764 8.41526 9.30009 8.47464C9.39903 8.402 9.50064 8.32846 9.60096 8.25522C9.62877 8.32547 9.6567 8.39589 9.68494 8.46663C9.74917 8.41559 9.81396 8.36489 9.87822 8.31381C9.83393 8.26875 9.78365 8.21846 9.74329 8.17678C10.007 7.99266 10.6615 8.36569 10.2733 8.38529C10.1156 8.39292 9.98579 8.22098 9.8465 8.588C9.93693 8.63144 10.0324 8.67879 10.129 8.72697L10.306 8.87266L10.4591 8.71511C10.5174 8.61896 10.5768 8.52173 10.6333 8.42765C10.694 8.47984 10.7546 8.53246 10.8154 8.58467C10.9791 8.35091 10.5724 8.30297 10.4525 8.18108C10.4948 8.13245 10.5379 8.08377 10.5801 8.03513C10.654 8.07104 10.7294 8.1105 10.8025 8.14384C10.7176 8.05434 10.5414 7.82511 10.7522 7.76597C10.8885 7.72866 10.97 8.08662 11.1065 7.8909C10.9583 7.76604 10.733 7.6589 10.8747 7.43038C11.0348 7.55535 11.1903 7.66139 11.3536 7.7979C11.4485 7.43159 11.7734 7.54957 11.8859 7.12069C11.9577 6.84899 11.8341 6.25253 12.4982 6.7014C12.6389 6.59172 12.4611 6.49193 12.4673 6.42377C12.4964 6.1015 12.8899 6.23767 12.9382 6.22101C13.2466 6.11481 13.2492 5.93007 13.5441 5.8877C13.4319 5.79271 13.3294 5.69915 13.2216 5.60499C13.2199 5.91519 13.1334 5.9858 12.8815 6.16863C12.9343 6.07527 12.9866 5.98136 13.0393 5.88794C12.9438 5.81545 12.8485 5.74286 12.754 5.67039C12.4062 6.67185 12.0465 5.99271 12.498 5.31486C12.7013 5.42244 12.906 5.52797 13.1094 5.63671C13.2024 5.07548 13.5598 5.12836 13.9792 4.81129C14.0289 4.77338 14.0997 4.52412 14.1642 4.45137C14.1625 4.45191 14.1607 4.45244 14.159 4.45297C14.055 4.26209 13.9294 4.25132 13.7912 4.12557C13.8121 4.07188 13.833 4.01824 13.8538 3.96454C14.0371 3.98295 14.0901 4.09516 14.2303 3.90832C14.1084 3.82944 13.9868 3.75027 13.865 3.67145C14.0409 3.48936 14.2669 3.48221 14.3872 3.26873C14.3969 3.33484 14.407 3.4007 14.4167 3.46679C14.877 3.20298 15.1751 4.08437 15.1578 3.51601C15.2266 3.5505 15.2955 3.58596 15.3643 3.62047C15.2634 3.74548 15.1621 3.87014 15.0616 3.99467C15.1319 4.07024 15.2016 4.14568 15.2722 4.22079C15.372 4.07891 15.4716 3.93572 15.5713 3.79376C15.5314 3.93058 15.4909 4.06793 15.4509 4.20465C15.6266 4.10075 15.8023 3.99687 15.978 3.89303C15.5614 3.77076 15.7226 3.54627 15.4216 3.31492C15.8908 3.29082 16.3775 3.39127 16.5778 2.82124C16.6173 2.70805 16.3904 2.5619 16.8333 2.57487C16.4858 2.32892 16.6196 1.91967 16.3041 1.67076C16.2421 1.75932 16.1722 1.8456 16.1155 1.93496C16.2962 1.95057 16.5777 2.20739 16.5302 2.41316C16.4694 2.67563 16.0479 2.722 16.3543 3.01236C16.2757 3.06213 16.2074 3.11321 16.1329 3.16336C16.0852 3.06346 16.0364 2.9636 15.9882 2.86413C15.9251 3.15734 15.7753 3.23029 15.5042 3.1279C15.6741 2.87428 15.844 2.62151 16.0143 2.36824C15.9703 2.38649 15.9259 2.40508 15.8824 2.42378C15.8536 2.07266 15.5081 2.05563 15.7675 1.71704C15.8524 1.80657 15.9378 1.89579 16.0232 1.98576C15.9283 1.72099 16.0859 1.48453 15.9955 1.30983L17.0112 0.310787L17.748 1.52233C17.7929 1.51104 17.8375 1.48563 17.8831 1.43966L17.0426 0.0577772L15.8842 1.19728C15.8702 1.18871 15.8549 1.18039 15.8382 1.17232C15.8453 1.17204 15.8521 1.17184 15.8588 1.17168L17.0498 0.000240326L17.9138 1.42086C17.8814 1.57472 17.8443 1.62872 18.0479 1.58508C17.9773 2.02175 17.7785 2.39618 17.3445 2.52187C17.4694 2.59151 17.5944 2.66115 17.719 2.73022C17.783 2.60656 17.8465 2.48312 17.9105 2.35948C18.0174 2.54822 18.1252 2.73826 18.2323 2.92615C17.9424 3.12799 17.9231 2.62617 17.7203 2.89853C17.6795 2.95313 17.856 2.98186 17.8416 3.02661C17.6816 3.50358 17.6542 2.9254 17.452 3.16092C17.574 3.48312 17.3023 3.54418 17.3735 3.67303C17.4036 3.7275 17.495 3.79408 17.7034 3.89764C17.6257 3.96575 17.547 4.03603 17.4692 4.1027C17.4848 4.12975 17.5017 4.15064 17.5196 4.1669L17.583 3.61638C17.5098 3.75226 17.6293 3.88311 17.5358 4.03129C17.468 4.1385 17.0714 3.96569 17.1709 4.25626C17.1898 4.30921 17.7028 4.4919 17.3473 4.82104C17.0714 5.07652 16.9332 4.72047 16.7027 4.7783C16.4723 4.83632 16.4894 5.50625 16.0039 5.21947C16.1301 5.19457 16.2531 5.12551 16.3784 5.08319C16.3362 4.97411 16.294 4.86673 16.2518 4.75852C16.1602 5.0475 15.849 5.13248 15.9021 5.4403C15.373 5.42423 15.3467 5.96432 15.7348 6.19414C15.7732 6.06541 15.5466 6.02308 15.7489 5.99132C15.8334 6.05102 15.9182 6.10972 16.0028 6.16943C15.7969 6.36021 15.6621 6.5008 15.5306 6.19135C15.4948 6.2171 15.4592 6.24257 15.4234 6.26832C15.5781 6.4319 15.7339 6.59543 15.8886 6.759C15.8701 6.8137 15.8513 6.86842 15.8328 6.92311C15.757 6.92944 15.6808 6.93548 15.6041 6.94186C15.4062 6.63619 15.4917 6.53257 15.0393 6.70807C15.1258 6.79526 15.2115 6.88255 15.298 6.96974C14.9264 7.12365 14.7081 6.92193 14.3893 7.26108C14.3369 6.70784 15.0113 7.09895 14.4021 6.4996C14.5048 6.47513 14.6087 6.45072 14.7115 6.42632C14.6327 6.32947 14.5538 6.23258 14.4746 6.13618C14.1847 6.52579 14.2028 7.66612 13.5936 7.51731C13.6131 7.59121 13.6263 7.65917 13.6488 7.73694C13.1967 7.73402 13.619 8.34223 13.0964 8.27606C13.0421 8.26879 12.6044 7.73979 12.3308 8.05495C12.401 8.10975 12.5109 8.21061 12.5964 8.28308C12.4945 8.3093 12.3913 8.33347 12.2892 8.35847C12.336 8.42747 12.3822 8.497 12.4294 8.56639C12.5597 8.47885 12.6902 8.39205 12.8206 8.30463C12.751 8.41556 12.6809 8.52708 12.6113 8.63796C12.8232 8.61285 12.8771 8.56034 12.959 8.78239C12.8665 8.89447 12.7744 9.00722 12.6819 9.11927C12.7104 9.16835 12.7394 9.2178 12.7679 9.26686C12.9333 9.33167 13.0968 9.39355 13.2643 9.4603C12.9037 9.63425 12.6675 9.86181 12.2364 9.84306C12.1633 9.84022 12.1352 9.56734 12.0349 9.94067C11.9515 9.86565 11.8804 9.80817 11.8026 9.73958C11.7723 9.97815 11.721 10.1123 11.6286 10.2024L11.5869 10.2462L11.6279 10.2877C11.7287 10.3973 11.7692 10.5598 11.841 10.8091C11.8009 10.4632 11.8735 10.7367 12.0038 10.71C12.0934 10.6914 11.9544 10.5625 12.028 10.5218C12.1013 10.4814 12.5063 10.4345 12.3898 10.255C12.0492 10.2908 11.926 10.2045 11.8541 10.0716L11.8512 10.4221C12.042 10.3112 12.3355 10.307 12.4755 9.89295C12.4656 10.0263 12.4552 10.1603 12.4451 10.2935C12.5207 10.3007 12.589 10.3077 12.67 10.3148C12.316 10.4841 12.5035 10.4169 12.4701 10.5971C12.4525 10.6916 12.4078 10.8072 12.3533 10.9175L12.364 9.58437C12.4627 9.63682 12.5568 9.69722 12.6269 9.75193C12.6734 9.78816 12.5227 9.84713 12.603 9.95235C12.6576 10.024 12.986 10.0488 12.8358 10.2705C12.7384 10.4147 12.1282 10.4539 12.5041 10.8467C12.4543 11.0358 12.3117 10.8115 12.2933 10.8213C12.117 10.9243 12.2406 11.2685 12.4567 11.2756C12.4748 11.2757 12.502 11.0809 12.6374 11.1351C12.9591 11.2631 12.9567 11.5169 12.9256 11.8284C13.1429 11.6513 13.5662 11.6133 13.7189 11.9234C13.788 11.8807 13.8571 11.837 13.9266 11.7939C13.861 11.7858 13.7957 11.7774 13.73 11.7693C13.7277 11.6943 13.7133 11.6263 13.7183 11.546C13.996 11.7394 14.3048 11.5092 14.5147 11.5286C15.2316 11.5962 14.2773 12.0519 14.0836 12.1013C14.0858 12.0013 14.0957 11.8972 14.1011 11.7951C14.0366 11.8675 13.9716 11.9405 13.9062 12.0129C14.4694 12.6014 13.5387 12.5356 13.6953 12.9578C14.1116 12.7072 14.3531 12.8965 14.4049 13.382C14.4362 13.4113 14.4664 13.442 14.4982 13.4709C14.5526 13.4287 14.6283 13.3563 14.6689 13.3336C15.0479 13.6161 14.5849 14.1733 14.5664 14.2519C14.4844 14.6014 14.8927 14.4225 14.9352 14.4617C15.1147 14.6269 15.0305 14.8051 15.2489 14.9169C15.4839 15.037 15.4674 14.8171 15.6113 14.7845C15.7259 14.7591 15.8748 14.8887 16.0058 14.8759C15.9223 14.911 15.8374 14.9425 15.7536 14.9781C15.8491 15.2441 15.9147 15.4733 16.0985 15.7035C16.7722 15.5176 16.2203 16.4345 16.7464 15.7737C16.5956 15.5336 16.5574 15.3553 16.6101 15.0993C16.7556 15.2126 16.9005 15.3265 17.0457 15.4399C17.0159 15.542 16.9773 15.6312 16.9532 15.7413C17.1881 15.7053 17.3454 15.9919 17.4721 16.0425C18.0649 16.2795 18.176 15.9248 18.1437 16.6891C17.8419 16.4488 17.6485 16.6344 17.4131 16.3351C17.3308 16.5269 17.4932 16.6381 17.2406 16.7071C17.5362 16.9318 17.6018 16.7052 17.8316 16.683C18.0296 16.6641 18.2067 16.8377 18.3432 16.6879C18.2802 16.7831 18.2159 16.8717 18.1532 16.9666C18.318 17.1376 18.482 17.3094 18.6468 17.4805C18.4938 17.4866 18.3404 17.4932 18.1872 17.4996C18.2087 17.5848 18.2306 17.6699 18.2524 17.7549C18.6043 17.8467 18.8327 18.221 19.0502 18.4424L18.9592 18.2156C18.9629 18.4911 19.0408 18.6736 19.4548 18.598C19.4821 18.8797 19.3716 18.9149 19.2062 19.068C19.2495 19.0791 19.2881 19.0899 19.3302 19.1007L19.3285 19.1447L19.2878 19.1433C19.2821 19.1657 19.2764 19.1892 19.2707 19.2149C19.0886 19.1463 18.9503 19.3948 18.7897 19.3305C18.6291 19.2668 18.5882 19.0344 18.5668 19.4257C18.4624 19.3134 18.3587 19.2207 18.255 19.1173C18.1932 19.2061 18.1314 19.2935 18.0702 19.3812C17.9726 19.335 17.8748 19.2893 17.7772 19.2435C17.7357 19.3933 17.4756 19.3693 17.2891 19.4206L17.1353 19.4148L17.055 19.3157C17.0175 19.2909 16.9796 19.2718 16.9414 19.2631C16.9837 19.0121 17.4495 18.6067 17.1153 18.399C17.0077 18.5071 16.9002 18.6148 16.7924 18.7229C16.7592 18.637 16.7258 18.5512 16.692 18.465C16.7256 18.4284 16.7598 18.3922 16.7934 18.3556C16.8112 18.3988 16.8287 18.4414 16.846 18.485C16.8836 18.4007 16.9212 18.3175 16.9589 18.2339C16.7781 18.2178 16.5978 18.2011 16.4179 18.1833C16.466 18.3789 16.5134 18.5752 16.5601 18.772C16.3294 18.677 16.31 18.4861 16.0898 18.4208C16.1343 18.1556 16.2644 18.1241 16.4791 18.0264C16.4229 17.992 16.3668 17.9566 16.3107 17.9222C16.5067 17.8046 16.536 17.6367 16.7679 17.9227C16.7993 17.8613 16.8281 17.8015 16.8617 17.7389C16.8137 17.7008 16.8281 17.6358 16.7652 17.6031C16.5932 17.5142 16.2066 17.6709 16.1118 17.7711C16.0621 17.8239 16.2834 17.8658 16.2021 17.9281C16.0031 18.0803 15.8194 17.698 16.0181 18.3079C15.7707 18.2656 15.8323 18.153 15.7251 17.9603C15.6742 18.0277 15.6233 18.0945 15.5719 18.1615C15.5352 18.0606 15.4983 17.9598 15.4613 17.8591C15.8708 17.6828 15.4996 17.0278 16.2178 17.2784C16.1012 17.1199 15.9849 16.962 15.8691 16.8037C15.9282 16.8052 15.9871 16.8069 16.0463 16.8083C16.0885 16.8888 16.1304 16.9688 16.1727 17.0492C16.1625 16.9197 16.1515 16.7908 16.1405 16.6619C15.9023 16.5449 15.7262 16.5721 15.5139 16.6098C15.6037 16.9114 15.6787 16.7207 15.8549 16.862C15.7619 16.9337 15.688 17.0126 15.583 17.0794C15.6883 16.8331 15.3068 16.6696 15.2407 16.612C15.0384 16.4375 15.3523 16.4372 15.2381 16.3019C15.1233 16.1669 14.8808 16.1022 14.9564 15.8423C14.8616 15.9295 14.7695 16.0263 14.6884 16.1117C14.4741 15.9329 14.6241 15.8739 14.6198 15.8396C14.5576 15.2867 14.1885 15.2827 13.8189 14.9138C13.8339 14.9888 13.8521 15.0619 13.8691 15.1361C13.4099 15.017 13.6467 15.1613 13.8053 15.4767C13.6143 15.2184 13.3247 15.2297 13.1275 15.1025C12.9303 14.9753 12.7631 14.6062 12.7359 14.4414C13.0548 14.5919 13.2144 14.917 13.4804 15.1619C13.5486 15.0471 13.6027 14.9463 13.6789 14.8228C13.3351 14.8346 13.3844 14.622 13.3625 14.5453C13.2985 14.3196 13.1348 14.4729 13.2305 14.2179C13.1719 14.2766 13.1222 14.3255 13.0676 14.3806C12.8055 14.0293 12.5987 13.5834 12.1885 13.5663C12.316 13.4191 12.4423 13.2814 12.5697 13.1291C12.3374 13.0875 12.3424 12.8718 12.2127 12.7786C12.0837 12.6855 12.0083 12.8309 11.843 12.7335C11.8125 12.7154 11.837 12.6 11.7292 12.5843C11.6196 12.5692 11.0275 12.6792 11.3419 12.3523C11.24 12.2336 11.1542 12.1119 11.0584 11.9922C11.1761 12.0873 11.2936 12.1829 11.4114 12.2771C11.4089 12.1096 11.4058 11.9437 11.4015 11.7778C11.3183 11.8297 11.2338 11.8825 11.1522 11.9338C10.8369 11.755 10.7887 11.4658 10.5308 11.232C10.4879 11.1929 10.4394 11.4174 10.3051 11.1941C10.3014 11.188 10.2979 11.1818 10.2947 11.1755L10.2873 11.1681L10.2811 11.1749C10.0604 11.3001 9.70451 11.2047 9.48735 11.5925C9.47643 11.613 9.55879 11.8866 9.3248 11.868C9.27187 11.8641 9.33874 11.7172 9.24409 11.7364C9.14937 11.7556 8.85929 11.9802 8.75476 11.912C8.78742 11.9406 8.83464 11.9571 8.873 11.9813C8.84284 12.0399 8.81215 12.0989 8.78108 12.1575C8.72451 12.1067 8.66756 12.0562 8.61131 12.0057C8.47933 12.3863 8.5398 12.7179 8.09406 13.0198C8.27446 12.9926 8.45643 12.967 8.63882 12.9428C8.61631 12.86 8.59326 12.7765 8.56982 12.6937C8.76717 12.5461 8.96543 12.3985 9.16391 12.252C9.13173 12.16 9.09897 12.0684 9.06628 11.9759C9.1208 11.939 9.17467 11.9024 9.2293 11.8657C9.26244 11.9239 9.29517 11.9819 9.32769 12.0404C9.40954 11.94 9.49113 11.8392 9.57222 11.739C9.65019 12.1977 9.02474 12.2181 9.26845 12.4247C9.19252 12.4288 9.1165 12.4329 9.04072 12.4371C9.12768 12.5649 9.01172 12.6134 8.845 12.7385C8.93065 12.7596 9.01949 12.7769 9.10335 12.8018C8.88348 12.8629 8.63033 13.1146 8.45111 13.2286C8.3725 13.2788 8.36548 13.139 8.33701 13.1486C8.19102 13.1978 8.12458 13.5145 8.07358 13.5419C7.77014 13.7072 7.38145 13.6139 7.27169 14.0263C7.58114 13.8062 7.41724 13.9306 7.59959 13.928C7.65655 13.9271 8.06717 13.6541 7.59867 14.0438C7.54155 14.0872 6.58489 14.6826 6.72892 14.3083C6.63882 14.4724 6.58165 14.6149 6.50293 14.7694C5.90947 14.7267 6.29502 14.9302 6.53737 15.0159C6.49026 15.0615 6.44638 15.1058 6.39715 15.152C6.33565 14.8798 5.79964 15.3767 5.69978 15.6312C5.66585 15.716 5.88575 15.6099 5.76958 15.7665C5.69172 15.8174 5.6018 15.8735 5.51922 15.927C5.72028 15.9346 5.55686 16.1619 5.65879 16.2631C5.43948 16.2881 5.15697 16.1869 5.12614 16.0146C5.06213 16.1581 4.99662 16.3011 4.931 16.4429C5.00293 16.4205 5.07554 16.3975 5.14795 16.3756C4.74167 16.6381 4.42719 17.1935 4.16292 17.0604C4.11868 17.1052 4.07376 17.1503 4.02949 17.1951C4.0474 17.2421 4.06574 17.2886 4.08344 17.3353C3.84776 17.501 3.61371 17.6675 3.38077 17.836C3.54609 17.6418 3.54508 17.5533 3.77362 17.4075C3.66331 17.4404 3.55209 17.4751 3.4445 17.508C3.25242 17.8868 3.27127 17.9857 2.80709 18.3727C2.78555 18.3896 2.38273 18.6274 2.36504 18.6314C2.2816 18.6474 2.31246 18.5228 2.27338 18.5279C2.16345 18.5406 1.67364 18.8043 1.66538 18.7806C1.55744 18.4776 2.78655 17.1514 3.11049 16.7838C5.12119 14.4782 7.20843 12.3112 9.34315 10.1921L10.2503 9.21259L11.3131 10.2763C12.6629 11.7399 13.9986 13.2168 15.3972 14.6549C15.4336 14.6918 15.4845 14.6168 15.5025 14.6303C15.6136 14.7148 15.6021 14.9043 15.6325 14.9451C15.6979 15.0316 15.7534 14.9031 15.8079 14.9605C16.3692 15.5541 16.8397 16.1667 17.4166 16.7475C17.4541 16.7853 17.3358 16.8173 17.4141 16.8728C17.4548 16.9012 17.6832 16.9011 17.76 16.9786C18.0274 17.2498 18.2058 17.5185 18.4822 17.8096C18.5205 17.8498 18.5628 17.8959 18.6074 17.9451L17.2791 17.3498C17.4752 17.3463 17.7052 17.3461 17.8884 17.338C17.9967 17.3333 18.1092 17.2502 18.2162 17.2438C18.3681 17.2348 18.3378 17.3973 18.3613 17.4066C18.464 17.4472 18.4773 17.2693 18.5747 17.2702C18.7558 17.2726 18.7661 17.3913 18.9958 17.3741C19.0633 17.3689 19.1665 17.3479 19.279 17.3225L17.5094 19.1007C17.4738 18.9394 17.4291 18.759 17.4092 18.6371C17.4441 18.5041 17.4641 18.3617 17.4737 18.2156L17.9761 19.4687C17.7278 19.1723 17.4084 18.9088 17.1512 18.7013C16.9413 18.5321 17.0492 18.3947 16.9718 18.3179C16.6979 18.0481 16.33 17.9963 16.069 17.7467C15.7227 17.4152 15.531 17.0114 15.2116 16.6748C15.1597 16.6203 15.0534 16.7458 14.9982 16.6964C14.7939 16.5137 14.5252 16.2871 14.3704 16.0984C14.1975 15.8884 14.3014 15.6507 14.079 15.496C14.0136 15.4508 13.8442 15.5812 13.7324 15.5077C13.5542 15.3897 13.5291 15.0978 13.4421 14.9799C13.3221 14.8189 13.2866 15.0925 13.1184 14.8816C13.1115 14.8729 13.196 14.7365 13.15 14.7007C13.0165 14.5957 12.9392 14.6927 12.7744 14.5098C12.7589 14.492 12.6376 14.1568 12.6154 14.1332C12.4829 13.9958 12.2512 13.6858 12.1488 13.6274C11.7831 13.4185 11.8335 13.8099 11.9668 13.2076C11.7693 13.1873 11.5711 13.1693 11.3692 13.1405C11.5274 13.1372 11.3434 12.7127 11.3143 12.6982C11.0748 12.5781 11.0334 12.8255 10.8332 12.5742C11.4686 12.5516 10.5879 12.2377 10.4484 12.1133C10.3206 11.999 10.1995 11.8824 10.0829 11.764L8.60867 10.273L10.1077 8.70129C10.5957 8.1913 11.1182 7.76106 11.6241 7.23506C11.8332 7.01736 12.0426 6.65577 12.2666 6.42826C12.3185 6.37493 12.3602 6.49508 12.4076 6.4498C12.4543 6.40409 12.3131 6.36653 12.3698 6.31773C12.7244 6.01562 13.15 5.92484 13.2317 5.40813C13.2772 5.42398 13.3013 5.4487 13.3594 5.45786C13.4093 5.01834 14.1367 4.7948 14.3487 4.6502C14.6797 4.42343 14.6194 4.22254 14.846 4.04419C15.1461 3.80867 15.8002 3.65597 15.2 3.42013C15.3686 3.22179 15.5401 3.03989 15.7632 2.89176C15.7881 2.87535 15.8815 2.99572 15.8919 2.98958C15.9592 2.95207 15.8799 2.83995 15.9105 2.79997C15.9937 2.69167 15.9538 2.96295 16.0571 2.7935C16.1114 2.70389 16.068 2.5798 16.2649 2.37649C16.2749 2.3661 16.285 2.35571 16.2951 2.34532L15.9763 5.11172C15.8893 4.97205 15.8021 4.83094 15.7147 4.68862C15.4336 4.23086 15.1509 3.76059 14.8684 3.28534L18.3703 3.70997C17.6184 4.43472 16.8488 5.16251 16.1085 5.86954C16.0217 5.95257 16.1803 6.00043 16.066 6.09902C15.6689 6.44147 14.827 6.92203 14.5269 7.26006C14.2266 7.59797 14.4474 7.67645 14.3065 7.93531C14.2793 7.98537 14.2273 7.86924 14.1906 7.90226C13.9445 8.12513 13.5294 8.26787 13.3168 8.435C13.1759 8.54532 13.3177 8.6684 13.2384 8.76351C13.1199 8.90484 12.8512 8.9021 12.7765 8.96595C12.4265 9.26736 12.3046 9.59457 11.9404 9.83829C11.9812 9.85556 12.0158 9.87465 12.0543 9.89331C11.9799 9.9629 11.9056 10.0325 11.8313 10.102L10.4534 11.5201L8.85984 10.2088C8.55768 9.93504 8.25592 9.66123 7.95402 9.38693C7.94806 9.43081 7.94128 9.47442 7.93491 9.51878C7.50088 9.10659 7.81058 8.84987 7.30358 9.52264C7.25192 9.51613 7.19527 9.51142 7.14664 9.50435C7.44057 9.18711 7.37576 8.70689 7.10203 8.3191C7.08196 8.29065 6.64079 8.4576 6.98029 8.09913C6.85751 8.15169 6.77708 8.19148 6.67081 8.23874C6.69514 8.0607 6.71711 7.8834 6.74058 7.70637C6.68675 7.68842 6.6329 7.66936 6.57912 7.65136C6.51071 7.71925 6.45022 7.79909 6.37617 7.85959C6.1844 7.70836 5.8874 7.28571 5.73537 7.16678C5.35709 6.87205 4.82802 6.74008 4.72908 6.28283C4.57553 6.18312 4.58993 6.44336 4.40413 6.24536C4.44201 6.15425 4.47867 6.06736 4.51731 5.97337C4.08252 6.1419 4.21302 5.91868 4.04366 5.65168C3.92935 5.47087 3.76407 5.45803 3.63188 5.31307C3.59842 5.2763 3.68194 5.18953 3.65422 5.17001C3.56172 5.10423 3.21419 5.01419 3.15206 4.96404C2.77248 4.66174 2.44563 4.36833 2.12563 4.05882L3.61082 4.50085C3.39277 4.51595 3.17293 4.52721 2.94547 4.5366C2.87128 4.5399 2.9816 4.64392 2.90474 4.64688C2.78112 4.65179 2.83049 4.46977 2.75835 4.46861C2.55728 4.46648 2.57972 4.65027 2.30452 4.68776C2.05709 4.72149 1.79785 4.74349 1.53231 4.75952L2.56982 1.49166C3.05598 2.00674 3.53928 2.58211 4.03 3.0745C4.05134 3.0954 4.11978 3.0185 4.14362 3.04052C4.29779 3.18539 4.357 3.43715 4.49537 3.57043C4.7246 3.79198 4.99138 3.85591 5.21495 4.07786C5.65238 4.51119 5.99561 4.95001 6.44334 5.39803C6.80948 5.76505 7.13772 6.07268 7.54047 6.47373C8.44032 7.36876 9.39776 8.22081 10.3341 9.09871L11.5543 10.095L10.348 11.3791C9.44936 12.2147 8.52819 13.0291 7.55466 13.7763C7.5039 13.8151 7.47863 13.7507 7.46582 13.7654C7.34508 13.906 7.39235 13.98 7.21663 13.8894C7.06322 14.069 7.10007 14.2159 6.87654 14.3923C6.75748 14.4863 6.70121 14.2624 6.57982 14.5063C6.46979 14.726 6.74061 14.6417 6.13735 15.003C6.12123 15.0124 5.9693 14.9818 5.88225 15.0976C5.79409 15.2132 5.98061 15.1688 5.73353 15.4101C5.15155 15.9746 4.29562 16.5627 3.59104 17.1893C3.5471 17.2288 3.14624 17.6328 3.07589 17.7219C2.94053 17.895 3.02611 17.9196 2.81834 18.1106C2.65739 18.2578 2.46209 18.3131 2.27371 18.4871C2.25316 18.5061 2.26643 18.5869 2.13735 18.6904L2.38363 17.2156C2.38786 17.2255 2.39203 17.2361 2.39611 17.2473ZM16.0439 6.87976C16.1399 7.04929 16.5631 7.60191 16.1868 7.68269C16.1513 7.69048 15.93 7.24067 15.7511 7.31393C15.838 7.15528 15.9457 7.02356 16.0434 6.87925C16.0436 6.87942 16.0438 6.87959 16.0439 6.87976ZM1.47008 19.3083C1.36135 19.0934 1.25277 18.8774 1.14539 18.6618C1.25734 18.7908 1.36838 18.9204 1.47826 19.0497C1.47501 19.1364 1.47202 19.2222 1.47008 19.3083ZM7.53077 4.81901C7.53059 4.81886 7.53041 4.81871 7.53024 4.81857C7.77823 4.91816 8.02681 5.01731 8.27552 5.11608C8.21503 5.14579 8.15435 5.17563 8.09392 5.20528C7.87768 5.15048 7.66178 5.09514 7.44673 5.03996C7.47481 4.96628 7.50276 4.8926 7.53077 4.81901ZM5.58537 4.01593C5.50839 3.85735 5.61646 3.79198 5.62432 3.6461C5.62417 3.64627 5.62403 3.64643 5.62388 3.6466C5.62568 3.60842 5.5593 3.51789 5.52991 3.48726C5.49322 3.55405 5.46059 3.62308 5.4252 3.69035C5.02115 3.58237 4.86995 2.62517 5.77164 3.0402C5.69934 3.10266 5.62787 3.16513 5.55564 3.22752C5.93729 3.51132 6.20737 4.00914 5.58537 4.01593ZM13.5666 9.79518C13.5193 10.3176 13.4769 10.4582 12.9667 10.6449C12.9484 10.5294 12.9302 10.4139 12.9118 10.2982C13.0378 10.3086 13.1629 10.3189 13.2891 10.3295C13.2893 10.3293 13.2894 10.3291 13.2896 10.329C13.2288 10.2462 13.1679 10.1632 13.1066 10.0808C13.2597 9.98572 13.4134 9.89018 13.5666 9.79518ZM8.93483 10.5366C8.87922 10.6377 8.8468 10.7009 8.82481 10.7366L8.81883 9.75975C8.79456 9.7424 8.78371 9.73128 8.78282 9.72162L8.78927 10.7752C8.75726 10.7804 8.73424 10.6734 8.55283 10.5938C8.4445 10.5466 8.47134 10.6781 8.40996 10.6422C8.07704 10.45 8.26748 10.1991 8.44039 10.135C8.60598 10.2685 8.77242 10.4043 8.93431 10.5361C8.93448 10.5363 8.93466 10.5364 8.93483 10.5366ZM2.08114 16.7184C2.08097 16.7185 2.08081 16.7187 2.08064 16.7188C2.02245 16.6714 2.1162 16.5505 1.94607 16.6187C2.03853 16.5276 2.13121 16.4368 2.22416 16.3454C2.20184 16.3774 2.17869 16.4098 2.15631 16.4418C2.19825 16.437 2.24057 16.4326 2.28271 16.428C2.2554 16.332 2.32075 16.3388 2.43863 16.2652C2.34655 16.2225 2.25496 16.1801 2.16369 16.1383C2.29449 16.0461 2.42628 15.9543 2.55813 15.8632C2.57625 15.8796 2.59444 15.896 2.61257 15.9123C2.63356 15.8476 2.6537 15.7829 2.67428 15.7177C2.70595 15.7276 2.73705 15.7378 2.76882 15.7478C2.80463 15.6808 2.84038 15.6136 2.87565 15.5461C2.94085 15.5832 2.84939 15.7175 3.03685 15.5062C3.02673 15.6212 3.01592 15.7352 3.00398 15.8492C2.69617 16.1387 2.38846 16.4284 2.08114 16.7184ZM6.64878 8.68845C7.00989 8.98331 6.8598 8.95278 6.61304 9.06157C6.62476 8.93778 6.63628 8.81309 6.64878 8.68845ZM13.3655 4.69948C13.3009 4.44229 13.2382 4.18609 13.1811 3.93186C13.2862 3.64679 13.7743 3.74866 13.7424 4.01077C13.7033 4.32565 13.3647 4.35359 13.3655 4.69948ZM18.4152 3.47605C18.3305 3.13308 18.7294 3.26036 18.9051 3.24183C18.8686 3.28765 18.8439 3.32819 18.8285 3.36553L19.2719 4.09117L18.6754 4.69446C18.5293 4.67263 18.4547 4.76092 18.3229 4.86101C18.403 4.76484 18.4192 4.58264 18.4336 4.45587L18.8434 4.0414L18.5388 3.54288C18.4706 3.5175 18.4197 3.49699 18.4146 3.47643C18.4148 3.4763 18.415 3.47618 18.4152 3.47605ZM10.4061 7.59116C10.2988 7.50903 10.1562 7.46912 10.1129 7.33424C10.278 7.1974 10.3375 7.49901 10.4093 7.14981C10.4788 7.20134 10.5483 7.25306 10.6177 7.30371C10.4915 7.36736 10.4843 7.48835 10.4063 7.5904C10.4062 7.59065 10.4061 7.5909 10.4061 7.59116ZM3.14649 5.83519C3.09098 5.50462 2.99345 5.53641 2.69447 5.46718C2.78375 5.31482 3.21606 5.31506 3.40606 5.40292C3.31915 5.54704 3.23248 5.69111 3.14649 5.83519ZM8.21644 13.9757C8.15594 13.8202 8.48553 13.486 8.68984 13.3625C8.6859 13.3986 8.68206 13.4349 8.67827 13.4711C8.52494 13.6395 8.37057 13.8081 8.21644 13.9757ZM18.2401 4.91877C18.2702 4.8995 18.2977 4.88011 18.3229 4.86101C18.3005 4.8878 18.2737 4.90842 18.2401 4.91877ZM15.4441 14.5185C15.1953 14.6027 15.3664 14.8953 15.1558 14.5427C15.1557 14.5429 15.1555 14.543 15.1553 14.5432C15.016 14.3101 14.9874 14.2565 14.8308 14.0669C15.1145 13.9179 15.5369 14.2028 15.1094 13.6624C15.1033 13.6557 14.9834 13.7951 14.9257 13.6986C14.908 13.6688 14.942 13.4866 14.8601 13.337C14.8335 13.2888 14.5915 12.9668 14.9694 13.3598C15.1138 13.1994 15.2914 13.0703 15.4413 12.9252C15.6307 13.0385 15.4392 13.4478 15.6016 13.604C15.8434 13.8353 16.2645 13.6682 15.909 14.0967C15.6175 13.9865 15.282 13.6395 15.4811 13.3622C15.2974 13.1616 15.0445 13.2953 15.0973 13.5481C15.8692 14.1096 14.9816 14.0153 15.7072 14.4594C15.7695 14.4134 15.8525 14.3808 15.9011 14.3272C15.8792 14.6954 15.5331 14.4882 15.4441 14.5185ZM14.517 12.6879C14.7483 12.6914 14.9797 12.694 15.21 12.6975C15.0159 12.8829 14.7806 12.9844 14.4946 12.904C14.5023 12.8321 14.5096 12.7596 14.517 12.6879ZM14.7167 16.7475C14.6106 16.8099 14.4869 16.8361 14.3713 16.8776C14.4162 16.772 13.7246 15.8241 14.1871 16.2087C14.255 16.2639 14.4395 16.8034 14.7167 16.7475ZM4.64359 6.92397C4.59547 6.77312 4.54834 6.62202 4.50167 6.47056C4.69293 6.57411 4.88478 6.67727 5.07578 6.78111C4.93201 6.82811 4.7882 6.87605 4.64359 6.92397ZM15.1452 3.31345C15.0999 3.35026 15.088 3.0638 14.9489 3.24877C14.9749 3.03231 15.0077 2.83818 15.0364 2.63001C15.1424 2.66608 15.2485 2.70151 15.3545 2.73761C15.3369 2.66442 15.32 2.59095 15.3024 2.51774C15.3886 2.63809 15.4742 2.75419 15.5612 2.87719C15.1412 2.85233 15.3453 3.15017 15.1452 3.31345ZM9.18675 7.94125C9.34629 7.67727 9.77378 7.80379 9.50089 7.50694C9.68876 7.40433 9.85019 7.40356 10.0405 7.54161C10.0192 7.62423 9.99824 7.70643 9.97691 7.78915C10.1146 7.63643 10.2101 7.61749 10.4061 7.59116C10.406 7.59141 10.4059 7.59166 10.4059 7.59191C10.6875 7.81077 10.6265 7.84916 10.4711 8.16239C10.3084 7.77259 10.0982 8.00064 9.78354 7.97292C9.56734 7.95396 9.42933 7.76076 9.18675 7.94125ZM15.5359 17.6848C15.1994 17.6262 15.2066 17.9391 15.068 17.4302C15.1286 17.4174 15.1891 17.405 15.2498 17.392C15.3455 17.4893 15.4408 17.587 15.5359 17.6848ZM8.86069 6.29869C8.58087 6.6723 8.53475 7.11213 9.0624 6.56195C8.97621 6.2864 8.78763 6.69031 8.86069 6.29869ZM17.6969 3.78116C17.6383 3.67401 17.6299 3.58021 17.6555 3.50039C17.7151 3.31478 17.9585 3.20471 18.1821 3.17801C18.2333 3.1719 18.2834 3.17016 18.3301 3.17288C18.2594 3.25119 18.1885 3.32957 18.1179 3.40701C18.2001 3.45333 18.2825 3.4996 18.3641 3.54624C18.1419 3.62445 17.9191 3.70294 17.6969 3.78116ZM1.62498 2.59862C1.9422 2.25035 1.21868 2.48487 1.4432 2.26402C1.62232 2.08654 1.92356 2.35255 1.84931 2.55613C1.78116 2.57067 1.70502 2.58466 1.62566 2.59853C1.62543 2.59856 1.6252 2.59859 1.62498 2.59862ZM3.85401 2.59073C4.02523 2.30005 4.02706 2.42875 3.7712 2.29074C3.75707 2.28311 3.73026 2.25783 3.69641 2.22481L3.54304 2.08349L3.29854 2.1064C3.10186 2.11923 2.72335 2.13309 2.96809 2.3216C3.08297 2.30605 3.20127 2.29127 3.32076 2.27675L3.48293 2.26156L3.58466 2.3553C3.67423 2.43339 3.76437 2.51251 3.85401 2.59073ZM14.5679 7.95059C14.4496 7.83987 14.5447 7.23621 14.6528 7.25345C14.6527 7.25328 14.6525 7.25311 14.6523 7.25294C14.9464 7.30153 14.6028 7.69816 15.0001 7.77108C14.4373 7.92239 14.8359 8.52729 14.1959 7.84636C14.375 7.60674 14.4135 7.84187 14.5679 7.95059ZM3.42664 17.8786C3.42647 17.8787 3.4263 17.8789 3.42613 17.8791C3.45236 17.8582 3.7245 17.7455 3.72524 17.7947C3.46123 17.9965 3.45927 17.9092 3.30897 18.1972C3.2724 18.1833 3.23841 18.1686 3.20087 18.1555C3.27572 18.0572 3.29555 17.98 3.42664 17.8786ZM14.0765 15.6276C14.1812 15.6971 14.2255 15.9534 14.3225 16.0522C13.6419 16.0661 13.661 15.3477 14.0765 15.6276ZM5.34119 13.5417C5.34135 13.5414 5.3415 13.5411 5.34166 13.5407C5.34173 13.5409 5.34176 13.5412 5.34183 13.5414C5.34162 13.5415 5.34141 13.5416 5.34119 13.5417ZM18.4061 16.5895C18.3882 16.6283 18.3694 16.6584 18.3498 16.6816C18.3478 16.6836 18.3457 16.6855 18.3436 16.6875C18.3646 16.6557 18.3855 16.6233 18.4061 16.5895ZM13.8766 8.71797C13.5709 8.70683 13.8 7.96495 14.0173 7.86641C14.0797 7.94993 14.1446 8.01733 14.2033 8.12633C13.887 8.06679 13.928 8.72038 13.8766 8.71797ZM11.2851 6.97968C11.676 6.60042 11.7916 7.72493 11.2772 7.24662C11.2685 7.23622 11.276 6.99047 11.2851 6.97968ZM16.8304 5.59932C16.7339 5.3091 16.4865 5.45665 16.8332 5.17246C16.9017 5.20362 16.9704 5.23491 17.0389 5.26608C16.9693 5.37706 16.9 5.48837 16.8304 5.59932ZM14.642 5.30017C15.0246 4.71234 15.3028 4.06145 14.4589 3.84339C14.439 3.89701 14.418 3.95056 14.3981 4.00416C14.6493 4.26912 14.3731 4.26213 14.1657 4.45092C14.2391 4.58189 14.1522 4.71496 14.2179 4.8228C14.3448 5.03123 14.5894 5.02461 14.642 5.30017ZM8.26971 11.3445C8.25014 11.3077 8.23022 11.2709 8.21087 11.2344C8.25845 11.1269 8.30605 11.019 8.35297 10.9108C8.39391 10.9796 8.43473 11.0484 8.47549 11.1171C8.40704 11.193 8.33893 11.2685 8.27037 11.3442C8.27015 11.3443 8.26993 11.3444 8.26971 11.3445ZM13.5229 12.714C14.0413 12.3048 13.8044 12.2302 13.2577 12.1421C13.3457 12.3328 13.4344 12.5238 13.5229 12.714ZM5.71517 5.21232C5.82149 5.06625 5.92757 4.92081 6.03328 4.77444C5.73325 4.76452 5.63301 4.94846 5.56303 5.20279C5.61388 5.20622 5.66427 5.20895 5.71517 5.21232ZM3.11557 3.0589C3.1655 3.15003 3.21885 3.01149 3.2247 3.02028C3.36298 3.23701 3.34698 3.30895 3.6439 3.42627C3.69589 3.42243 3.74869 3.41669 3.80147 3.41192C3.93345 3.04332 3.72726 3.12831 3.64197 2.77396C3.60142 2.90313 3.56042 3.03249 3.51916 3.16248C3.41568 3.03939 3.31235 2.91709 3.20868 2.79429L3.3955 2.84989C3.38992 2.84971 3.38434 2.84954 3.37876 2.84936C3.36439 2.88972 3.34993 2.9297 3.33554 2.97C3.36282 2.98757 3.39057 3.00619 3.4183 3.02468L3.09401 2.92816C3.10055 2.97293 3.10726 3.01749 3.11557 3.0589ZM7.28002 12.1222C7.15714 12.2247 7.03358 12.3275 6.91094 12.4302C6.94868 12.4786 6.98685 12.5272 7.02454 12.5756C7.1102 12.4253 7.19563 12.2739 7.28002 12.1222ZM16.0058 14.8759C16.0386 14.8621 16.0713 14.8479 16.1034 14.8324C16.0727 14.8602 16.0398 14.8725 16.0058 14.8759ZM2.96084 18.0007C2.81069 18.1057 2.63688 18.3015 2.49026 18.4355C2.57108 18.4976 2.91535 18.1271 3.08764 18.0509C3.09516 18.0175 3.02426 17.9563 2.96084 18.0007ZM17.3761 3.21431C17.2443 3.2417 17.1131 3.26881 16.9817 3.29675C16.9361 3.19605 16.891 3.09475 16.8451 2.99349C16.755 3.04486 16.6641 3.09674 16.574 3.1481C16.9426 3.49241 16.6291 3.55291 16.5032 3.91216C16.7938 3.67943 17.0849 3.44736 17.3761 3.21431ZM3.81151 15.8489C4.04699 15.5868 4.09167 15.4527 3.83932 15.4738C3.77362 15.5848 3.70696 15.6957 3.64036 15.8057C3.69739 15.8198 3.75464 15.8341 3.81151 15.8489ZM18.4581 18.8448C18.1647 18.9459 18.1582 18.5925 17.8719 18.7926C18.026 18.856 18.1801 18.9206 18.3336 18.985C18.3747 18.9385 18.417 18.8915 18.4581 18.8448ZM11.8341 8.05175C11.6464 8.04067 11.9661 8.68184 11.3677 8.58091C11.4157 8.745 11.4805 8.88208 11.5343 9.03545C11.3925 8.95389 11.2454 8.87502 11.106 8.79307C11.1059 8.79323 11.1057 8.7934 11.1055 8.79356C10.9232 9.05775 11.2072 9.05007 11.3218 9.1732C11.369 9.22448 11.1223 9.31068 11.2813 9.36453C11.5547 9.45654 11.7792 9.01358 12.0062 9.23588C11.8159 9.28152 11.6504 9.57402 11.8682 9.6541C12.1073 9.7424 12.0445 9.25076 12.3185 9.24761C11.7612 9.08965 12.2764 8.78836 12.6009 9.01657C12.6243 8.56445 12.319 8.69983 12.0863 8.95722C12.0214 8.59581 11.9184 8.93185 11.7057 8.79392C11.7513 8.53237 12.3635 8.08454 11.8341 8.05175ZM12.6917 7.38768C12.8449 7.21022 13.2263 7.07654 13.1623 6.78432C13.1248 6.61396 12.7837 6.78957 12.8004 6.44763C12.6542 6.62367 12.6808 6.7244 12.8513 6.84134C12.8314 6.89506 12.8107 6.9488 12.7904 7.00205C12.7454 6.99075 12.7004 6.98028 12.6555 6.96899C12.6947 7.04741 12.7334 7.12543 12.773 7.20334C12.7221 7.23028 12.6708 7.25767 12.6195 7.2842C12.6443 7.31852 12.662 7.35217 12.6917 7.38768ZM12.636 13.5251C12.6805 13.5723 12.7247 13.6191 12.7696 13.666C12.792 13.6367 12.8146 13.6054 12.837 13.5747C12.8551 13.5508 12.8733 13.527 12.8914 13.5031C12.8382 13.6002 12.9121 13.9474 13.0838 13.9696C13.1703 13.9805 13.2219 13.7362 13.435 13.9183C13.2919 13.7763 13.1461 13.6564 13.0023 13.5229C13.0587 13.4965 13.1151 13.4691 13.1717 13.4426C13.1716 13.4424 13.1716 13.4423 13.1716 13.4421C13.1379 13.3853 13.1041 13.3276 13.0703 13.2708C12.9251 13.3558 12.7807 13.4407 12.636 13.5251ZM5.62701 5.60771C5.89087 5.63989 5.99769 5.62908 6.07573 5.37731C6.07562 5.37708 6.07552 5.37684 6.07542 5.37661C5.9434 5.40405 5.81155 5.43121 5.6799 5.45822C5.66218 5.50785 5.64428 5.5576 5.62701 5.60771ZM16.7576 16.7945C17.736 16.5105 16.601 16.1292 16.5175 16.4881C16.5137 16.5043 16.7987 16.6942 16.7576 16.7945ZM17.481 4.01475C17.4145 3.91994 17.3483 3.8246 17.2817 3.72927C17.2738 3.71808 17.266 3.7069 17.2582 3.69571C17.218 3.73619 17.1779 3.77675 17.1379 3.81732C17.0895 3.86628 17.0412 3.91525 16.9927 3.96411C17.1552 3.98104 17.3184 3.99782 17.481 4.01475ZM5.10519 14.9921C5.30627 15.007 5.60658 14.8168 5.62174 14.5844C5.5418 14.6302 5.46198 14.6762 5.38233 14.7224C5.49566 14.5957 5.60596 14.4686 5.72035 14.3412C5.58204 14.1815 5.52063 14.4029 5.26245 14.5606C5.22158 14.5841 4.83228 14.5986 4.88875 14.8057C4.90033 14.8476 5.14913 14.6572 5.06712 14.8858C5.14354 14.8288 5.20283 14.7725 5.27272 14.7161C5.31123 14.7474 5.34976 14.7789 5.38881 14.8098C5.29397 14.8706 5.1997 14.931 5.10519 14.9921ZM13.6423 6.41379C13.8859 6.20355 13.8086 6.06908 13.6696 5.83352C13.5844 5.95969 13.4988 6.08552 13.4135 6.21159C13.4899 6.27861 13.5655 6.34632 13.6423 6.41379ZM7.27701 13.1125C7.42612 13.0144 7.27961 12.9689 7.31488 12.9032C7.44795 12.6547 7.64839 12.6013 7.80255 12.3798C7.80753 12.4106 7.81236 12.4392 7.81723 12.4689C7.81741 12.4688 7.81758 12.4686 7.81775 12.4685C8.8254 11.7139 8.12219 11.926 7.60554 12.469C7.55827 12.4444 7.51154 12.4195 7.46466 12.3953C7.27858 12.6861 7.10667 12.9539 7.27701 13.1125ZM13.8194 13.8195C13.7946 13.863 13.4887 13.9873 13.7512 14.0516C14.1994 13.8729 13.8332 13.8136 13.9059 13.6416C13.9798 13.6563 14.0537 13.6729 14.127 13.6872C13.9623 13.3347 13.848 13.3695 13.7051 13.6919C13.6959 13.7139 13.8441 13.7761 13.8194 13.8195ZM15.3529 15.7055C15.8528 15.2978 15.3202 15.1632 15.1867 15.3141C15.2258 15.3656 15.3395 15.3259 15.3522 15.4081C15.3653 15.4907 15.2688 15.6072 15.3529 15.7055ZM15.7434 4.6533C15.7316 4.66083 15.4278 4.5534 15.6 4.70423C16.1038 4.96345 16.0955 4.47567 15.9194 4.38577C15.8469 4.4728 15.8519 4.5835 15.7429 4.65279C15.743 4.65296 15.7432 4.65313 15.7434 4.6533ZM3.58088 16.4621C3.59197 16.4644 3.88771 16.28 3.88395 16.2118C3.86964 16.1437 3.83848 16.0844 3.81556 16.0205C3.71567 16.1888 3.40191 16.4115 3.5814 16.4617C3.58123 16.4618 3.58105 16.462 3.58088 16.4621Z" fill="#FF6060"/>
</svg>
